<?xml version="1.0" encoding="utf-8"?>
<!-- Generator: Adobe Illustrator 26.3.0, SVG Export Plug-In . SVG Version: 6.00 Build 0)  -->
<svg version="1.1" id="Layer_1" xmlns="http://www.w3.org/2000/svg" xmlns:xlink="http://www.w3.org/1999/xlink" x="0px" y="0px"
	 viewBox="0 0 595.28 841.89" style="enable-background:new 0 0 595.28 841.89;" xml:space="preserve">
<style type="text/css">
	.st0{fill:#FFED00;stroke:#000000;stroke-miterlimit:10;}
	.st1{fill:#FFFFFF;stroke:#000000;stroke-miterlimit:10;}
</style>
<path class="st0" d="M489.71,405.66v49.38c0,1.5-1.21,2.71-2.71,2.71h-13.81c-1.5,0-2.71-1.21-2.71-2.71v-37.3
	c0-1.5-1.21-2.71-2.71-2.71h-16.2c-1.5,0-2.71,1.21-2.71,2.71v37.3c0,1.5-1.21,2.71-2.71,2.71H430.3c-1.5,0-2.71-1.21-2.71-2.71
	V431.7c0-1.5-1.21-2.71-2.71-2.71h-15.01c-1.5,0-2.71,1.21-2.71,2.71v23.34c0,1.5-1.21,2.71-2.71,2.71h-45.47
	c-1.5,0-2.71-1.21-2.71-2.71v-49.38c0-1.5-1.21-2.71-2.71-2.71h-32.19c-10.43,0-19.03,7.89-20.13,18.04
	c-0.08,0.72-0.12,1.46-0.12,2.21v32.53c0,12.59,10.2,22.79,22.79,22.79h9.39c1.5,0,2.71,1.21,2.71,2.71v0.6
	c0,4.28-3.47,7.75-7.75,7.75h-25.73c-1.5,0-2.71,1.21-2.71,2.71v16.88c0,1.5,1.21,2.71,2.71,2.71h31.44
	c6.15,0,11.73-2.49,15.77-6.53c4.03-4.04,6.53-9.61,6.53-15.77h-0.05c0.03-0.45,0.05-0.9,0.05-1.36v-6.99c0-1.5,1.21-2.71,2.71-2.71
	h149.98c1.5,0,2.71-1.21,2.71-2.71v-70.15c0-1.5-1.21-2.71-2.71-2.71h-16.54C490.92,402.95,489.71,404.17,489.71,405.66z
	 M321.2,446.51v-12.75c0-5.83,4.73-10.57,10.57-10.57h1.53c1.5,0,2.71,1.21,2.71,2.71v29.99c0,1.5-1.21,2.71-2.71,2.71l0,0
	C326.61,458.61,321.2,453.19,321.2,446.51z"/>
<path class="st0" d="M301.24,420.99c-0.08,0.72-0.12,1.46-0.12,2.21v-2.21H301.24z"/>
<path class="st0" d="M262.04,392.14h15c1.5,0,2.71-1.21,2.71-2.71v-15c0-1.5-1.21-2.71-2.71-2.71h-15c-1.5,0-2.71,1.21-2.71,2.71v15
	C259.33,390.92,260.54,392.14,262.04,392.14z"/>
<path class="st0" d="M249.21,392.14h-15c-1.5,0-2.71-1.21-2.71-2.71v-15c0-1.5,1.21-2.71,2.71-2.71h15c1.5,0,2.71,1.21,2.71,2.71v15
	C251.92,390.92,250.71,392.14,249.21,392.14z"/>
<path class="st1" d="M124.4,543.1h15c1.5,0,2.71-1.21,2.71-2.71v-15c0-1.5-1.21-2.71-2.71-2.71h-15c-1.5,0-2.71,1.21-2.71,2.71v15
	C121.69,541.88,122.9,543.1,124.4,543.1z"/>
<path class="st1" d="M111.57,543.1h-15c-1.5,0-2.71-1.21-2.71-2.71v-15c0-1.5,1.21-2.71,2.71-2.71h15c1.5,0,2.71,1.21,2.71,2.71v15
	C114.29,541.88,113.07,543.1,111.57,543.1z"/>
<path class="st1" d="M203.13,374.42v104.27h-40.31c-1.5,0-2.71,1.21-2.71,2.71v8.14c0,11.49-9.31,20.81-20.81,20.81H96.15
	c-12.12,0-21.95-9.83-21.95-21.96v-56.27c0-1.5,1.21-2.71,2.71-2.71h15.26c1.5,0,2.71,1.21,2.71,2.71v49.73
	c0,3.61,2.93,6.54,6.54,6.54h31.73c3.4,0,6.15-2.75,6.15-6.15v-0.84c0-1.5-1.21-2.71-2.71-2.71h-14.75c-1.5,0-2.71-1.21-2.71-2.71
	v-15.86c0-1.5,1.21-2.71,2.71-2.71h58.67c1.5,0,2.71-1.21,2.71-2.71v-80.28c0-1.5,1.21-2.71,2.71-2.71h14.49
	C201.92,371.71,203.13,372.93,203.13,374.42z"/>
<path class="st0" d="M202.63,478.69h79.84c1.5,0,2.72-1.22,2.72-2.72v-70.05c0-1.5-1.22-2.71-2.72-2.71h-33.02
	c-6.09,0-11.6,2.47-15.59,6.46s-6.45,9.49-6.45,15.58v18.45c0,6.84,4.52,12.62,11.18,13.73l-35.96-0.03 M266.61,453.45h-0.23
	c-2.56-0.13-4.98-0.74-7.16-1.76c-5.93-2.73-10.08-8.37-10.26-14.98c0-0.16-0.01-0.32-0.01-0.48c0-2.53,0.58-4.94,1.63-7.12
	c1.15-2.38,3.6-3.86,5.25-3.86h7.06c2.5,0,3.72,1.21,3.72,2.71V453.45z"/>
</svg>
