<?xml version="1.0" encoding="utf-8"?>
<!-- Generator: Adobe Illustrator 26.3.0, SVG Export Plug-In . SVG Version: 6.00 Build 0)  -->
<svg version="1.1" id="Layer_1" xmlns="http://www.w3.org/2000/svg" xmlns:xlink="http://www.w3.org/1999/xlink" x="0px" y="0px"
	 viewBox="0 0 595.28 841.89" style="enable-background:new 0 0 595.28 841.89;" xml:space="preserve">
<style type="text/css">
	.st0{fill:none;stroke:#000000;stroke-miterlimit:10;}
	.st1{fill:#FFFFFF;stroke:#000000;stroke-miterlimit:10;}
	.st2{fill:url(#SVGID_1_);stroke:#000000;stroke-miterlimit:10;}
</style>
<path class="st0" d="M372.26,518.96c0,12.35-10.01,22.36-22.35,22.36c-12.35,0-22.36-10.01-22.36-22.36
	c0-12.34,10.01-22.35,22.36-22.35C362.24,496.61,372.26,506.62,372.26,518.96z"/>
<path class="st0" d="M326.9,486.61c-0.25,0.17-0.5,0.34-0.74,0.52l0.12-0.56L326.9,486.61z"/>
<path class="st0" d="M376.33,489.46l-0.1,0.33c-0.13-0.12-0.27-0.24-0.41-0.36L376.33,489.46z"/>
<path class="st1" d="M351.14,276.55l-38.33,35.58c-12.74-3.35-26.12-5.14-39.9-5.18c-85.49-0.22-156.28,68.34-158.65,153.8
	c-0.55,19.7,2.51,38.62,8.56,56.14l-11.58,12.93c-9.94-23.04-15.43-48.45-15.42-75.14c0.05-104.54,85.56-189.88,190.1-189.73
	C308.84,264.98,330.81,269.08,351.14,276.55z"/>
<path class="st1" d="M475.47,454.78c0,104.84-84.99,189.83-189.83,189.83c-63.01,0-118.86-30.7-153.38-77.97l14.27-5.49h0.01
	c28.91,37.92,74.57,62.4,125.95,62.4c86.36,0,156.57-69.16,158.27-155.11l44.26-26.8C475.33,445.98,475.47,450.36,475.47,454.78z"/>
<path class="st1" d="M469.85,197.12L368.3,283.85l-39.24,33.51l-55.19,47.14l4.41,1.73l62.89-43.64l18.12-12.57l18.51,29.54
	l-4.8,3.39l-56.09,39.54l3.41,3.82l63.46-33.63l1.68-0.89l4.86,7.75l0.01,0.01l12.3,19.64l-51.25,35.12l2.39,2.57l53.86-29.72
	l1.49,2.38c0.62,0.99,1.85,1.38,2.93,0.94l0,0l1.63-0.68l-2.29-4.72l37.92-20.93l3.9,6.76c0.62,1.07,2.13,1.13,2.83,0.12l0,0l0,0
	c0.49-0.71,0.6-1.62,0.27-2.43l-2.73-6.81l37.08-20.46l4.88,11.95c0.51,1.26,2.05,1.73,3.18,0.97l0,0c0.71-0.48,1.07-1.34,0.91-2.18
	L469.85,197.12z M451.72,245.89l13.17,32.28l-34.97,24.66l-13.13-32.71L451.72,245.89z M386.39,333.51l-15.34-31.65l13.32-9.24
	l16.94-11.75l17.26,29.95l-5.11,3.61L386.39,333.51z M407.07,376.15l-13.81-28.49l34.77-18.43l0.89-0.47l2.65,4.6l0.01,0.01
	L442.32,352L407.07,376.15z M448.08,348.05l-9.75-24.27l37.15-19.69l8.03,19.68L448.08,348.05z"/>
<polygon class="st0" points="418.58,310.82 413.46,314.43 386.39,333.51 371.05,301.86 384.38,292.62 401.32,280.87 "/>
<polygon class="st0" points="442.32,352 407.07,376.15 393.26,347.66 428.02,329.23 428.91,328.76 431.57,333.36 431.58,333.37 "/>
<line class="st0" x1="359.98" y1="438.57" x2="347.17" y2="444.77"/>
<line class="st0" x1="374.8" y1="448.62" x2="359.98" y2="438.57"/>
<line class="st0" x1="223.23" y1="367.8" x2="220.24" y2="369.2"/>
<line class="st0" x1="220.24" y1="369.2" x2="216.24" y2="365.73"/>
<line class="st0" x1="337.85" y1="471.46" x2="330.7" y2="465.25"/>
<line class="st0" x1="334.15" y1="448.62" x2="330.7" y2="465.25"/>
<line class="st0" x1="326.16" y1="487.13" x2="325.73" y2="489.22"/>
<line class="st0" x1="376.23" y1="489.79" x2="375.27" y2="492.9"/>
<path class="st1" d="M517.24,376.4l0.1-0.07l5.68-16.72l-59.48,28.8l-42.95,20.81l-60.61,29.35l-140.09-94.98l-42.04,14.98
	l-0.27,30.66l42.66-20.03l110.46,96.05l-4.42,21.32l0.62,0.04c-0.25,0.17-0.5,0.34-0.74,0.52c-10.15,7.39-16.68,19.48-16.38,33.07
	c0.47,21.65,18.65,39.17,40.3,38.89c21.72-0.28,39.25-17.98,39.25-39.78c0-11.71-5.06-22.24-13.11-29.52
	c-0.13-0.12-0.27-0.24-0.41-0.36l0.51,0.03l7.4-24.21l44.52-28.44l41.92-26.78l9.82-6.27l0.1-0.07
	c1.23,14.12,13.36,25.13,27.94,24.56c13.64-0.54,24.9-11.49,25.8-25.11C534.62,391.13,527.54,380.66,517.24,376.4z M349.9,541.32
	c-12.35,0-22.36-10.01-22.36-22.36c0-12.34,10.01-22.35,22.36-22.35c12.34,0,22.35,10.01,22.35,22.35
	C372.26,531.31,362.24,541.32,349.9,541.32z M506.93,409.69c-4.63,0-8.38-3.75-8.38-8.38s3.75-8.38,8.38-8.38s8.38,3.75,8.38,8.38
	S511.57,409.69,506.93,409.69z"/>
<path class="st0" d="M372.26,518.96c0,12.35-10.01,22.36-22.35,22.36c-12.35,0-22.36-10.01-22.36-22.36
	c0-12.34,10.01-22.35,22.36-22.35C362.24,496.61,372.26,506.62,372.26,518.96z"/>
<path class="st0" d="M372.26,518.96c0,12.35-10.01,22.36-22.35,22.36c-12.35,0-22.36-10.01-22.36-22.36
	c0-12.34,10.01-22.35,22.36-22.35C362.24,496.61,372.26,506.62,372.26,518.96z"/>
<circle class="st0" cx="506.93" cy="401.31" r="8.38"/>
<circle class="st0" cx="506.93" cy="401.31" r="8.38"/>
<line class="st0" x1="250.53" y1="489.46" x2="249.46" y2="490.06"/>
<linearGradient id="SVGID_1_" gradientUnits="userSpaceOnUse" x1="84.727" y1="578.2417" x2="316.1972" y2="419.1875">
	<stop  offset="0.3366" style="stop-color:#FFEF26"/>
	<stop  offset="0.416" style="stop-color:#FFE000"/>
	<stop  offset="0.5105" style="stop-color:#FFD300"/>
	<stop  offset="0.6079" style="stop-color:#FECB00"/>
	<stop  offset="0.7116" style="stop-color:#FDC800"/>
	<stop  offset="0.7528" style="stop-color:#FAB900"/>
	<stop  offset="0.8375" style="stop-color:#F19034"/>
	<stop  offset="0.8391" style="stop-color:#F18F34"/>
	<stop  offset="1" style="stop-color:#E95F32"/>
	<stop  offset="1" style="stop-color:#E3312D"/>
</linearGradient>
<polygon class="st2" points="193.42,544.59 249.46,490.06 139.71,551.44 126.75,558.68 33.52,610.82 115.84,539.75 127.77,529.46 
	215.3,453.89 143.28,485.05 243.55,412.19 314.36,477.36 "/>
<line class="st0" x1="111.23" y1="529.82" x2="111.22" y2="529.83"/>
</svg>
